<?xml version="1.0" encoding="utf-8"?>
<!-- Generator: Adobe Illustrator 27.5.0, SVG Export Plug-In . SVG Version: 6.00 Build 0)  -->
<svg version="1.1" id="Layer_1" xmlns="http://www.w3.org/2000/svg" xmlns:xlink="http://www.w3.org/1999/xlink" x="0px" y="0px"
	 viewBox="0 0 1600 800" style="enable-background:new 0 0 1600 800;" xml:space="preserve">
<rect x="0" y="0" style="fill:#FFFFFF;" width="1600" height="800"/>
<g>
	<g>
		<path style="fill:#BBEEDE;" d="M1416.146,483.836c-17.359-47.661-48.995-62.484-90.227-71.447
			c-40.485-8.799-89.154-0.984-126.368-24.087c-34.839-21.628-63.697-62.744-84.427-100.272
			c-20.838-37.722-62.046-83.145-100.105-96.002c-44.165-14.919-89.286-5.932-133.566,2.021
			c-43.167,7.752-77.537,10.912-119.72-4.634c-38.23-14.089-71.148-43.473-107.598-62.12
			C586.902,92.9,495.652,88.311,434.367,110.977c-24.334,9-62.671,60.934-89.229,94.653
			c-32.687,41.501-35.789,119.158-76.946,146.602c-56.157,37.447-132.561,76.46-125.074,163.399
			c1.473,17.113,4.183,34.403,10.673,50.163c6.428,15.608,18.123,26.317,25.507,41.25c12.914,26.113,35.53,98.568,17.821,121.112
			h1191.779c10.893-41.919,14.457-87.604,21.834-131.612C1417.183,558.053,1430.249,522.563,1416.146,483.836z"/>
		<path style="fill:#717171;" d="M1432.513,730.012c0,10.376-289.631,18.788-646.909,18.788
			c-357.277,0-646.908-8.411-646.908-18.788c0-10.376,289.631-18.787,646.908-18.787
			C1142.882,711.225,1432.513,719.636,1432.513,730.012z"/>
	</g>
	<g>
		<g>
			<path style="fill:#D4D2C2;" d="M1461.304,633.823c0-3.695-1.111-7.128-3.014-9.99c-2.142-7.826-9.299-13.579-17.804-13.579
				c-0.406,0-0.808,0.018-1.208,0.043c-2.718-4.275-7.493-7.113-12.934-7.113c-2.025,0-3.956,0.396-5.725,1.109
				c-2.19-4.383-6.718-7.395-11.951-7.395c-6.084,0-11.215,4.07-12.827,9.634c-2.69-3.92-7.201-6.492-12.314-6.492
				c-7.618,0-13.899,5.708-14.809,13.08c-3.394-2.305-7.491-3.652-11.902-3.652c-10.982,0-20.014,8.345-21.102,19.04
				c-0.805-0.121-1.629-0.185-2.467-0.185c-8.324,0-15.205,6.167-16.333,14.179c-0.314-0.022-0.631-0.037-0.951-0.037
				c-7.376,0-13.356,5.98-13.356,13.356c0,7.376,5.98,13.356,13.356,13.356c2.862,0,5.511-0.903,7.685-2.436
				c2.623,4.287,7.348,7.149,12.742,7.149c5.299,0,9.949-2.763,12.598-6.924c2.016,5.857,7.572,10.067,14.114,10.067
				c4.077,0,7.771-1.637,10.465-4.287c3.224,5.391,9.116,9.002,15.854,9.002c5.742,0,10.871-2.622,14.257-6.733
				c2.61,2.236,5.998,3.59,9.705,3.59c6.796,0,12.527-4.543,14.332-10.756c2.159,2.722,5.493,4.47,9.237,4.47
				c6.509,0,11.784-5.276,11.784-11.784c0-1.461-0.268-2.86-0.754-4.151c2.727-2.011,4.842-4.801,6.014-8.045
				C1458.429,645.047,1461.304,639.771,1461.304,633.823z M1412.279,624.58c-0.415-0.139-0.834-0.267-1.26-0.377
				c-0.003-0.268-0.011-0.534-0.027-0.799c0.264-0.047,0.525-0.1,0.783-0.162C1411.922,623.698,1412.09,624.144,1412.279,624.58z
				 M1422.605,651.946c0.109-0.187,0.218-0.374,0.321-0.566c0.919,1.523,2.067,2.89,3.395,4.058c-0.072,0.149-0.139,0.3-0.205,0.452
				C1425.188,654.376,1423.996,653.041,1422.605,651.946z"/>
			<g>
				<g>
					<path style="fill:#B2B2B2;" d="M1268.501,627.638v59.979c-2.77,0.362-5.533,0.696-8.31,0.981
						c-1.406,0.146-2.812,0.278-4.224,0.404c-8.011,0.675-16.112,0.89-24.088-0.105c-5.484-0.689-11.122-1.239-16.508-2.624
						c-5.067-1.301-9.667-3.369-14.511-5.415c-7.301-3.09-14.386-8.122-19.689-13.962c-14.518-15.972-21.283-36.664-21.881-58.03
						c-0.487-17.142,2.965-34.381,6.549-51.071c2.714-12.632,5.679-25.271,7.662-38.049c0.668-6.264,0.933-12.562,0.459-18.84
						c-0.529-2.651-1.211-5.261-2.074-7.822c-0.975-1.893-2.046-3.724-3.223-5.499c-1.35-1.517-2.763-2.965-4.266-4.329
						c-0.926-0.599-1.872-1.162-2.84-1.684c-1.253-0.39-2.526-0.731-3.814-1.009c-6.995-0.417-13.989,0.236-20.99,0.599
						c-10.377,0.542-21.186,0.042-31.173-3.035c-12.096-3.723-20.663-14.191-21.756-26.217c-0.313-3.396-0.028-6.911,0.94-10.439
						c4.211-15.305,21.144-25.598,36.664-20.817c1.211,0.376,2.436,0.689,3.661,0.96c10.454,0.606,20.893-1.267,31.361-0.759
						c11.936,0.591,22.223,2.986,32.982,8.101c8.888,4.232,17.288,11.052,23.364,18.813c3.696,4.719,7.6,9.389,10.342,14.762
						c2.547,4.977,4.837,10.189,6.521,15.528c2.756,8.728,3.981,18.178,4.148,27.303c0.306,16.544-3.048,33.128-6.452,49.255
						c-2.686,12.722-5.742,25.424-7.746,38.286c-0.717,6.612-0.988,13.265-0.48,19.898c0.543,2.742,1.252,5.443,2.144,8.094
						c0.731,1.413,1.51,2.798,2.366,4.148c0.39,0.411,0.793,0.814,1.211,1.211c0.787,0.487,1.587,0.947,2.408,1.385
						c2.491,0.814,5.032,1.448,7.614,1.942c7.015,0.591,14.072,0.404,21.095-0.195c2.276-0.188,4.559-0.418,6.827-0.682
						C1264.694,628.39,1266.594,628.028,1268.501,627.638z"/>
					<rect x="1255.967" y="613.565" style="fill:#B2B2B2;" width="37.59" height="91.876"/>
				</g>
				<path style="fill:#999998;" d="M1293.557,648.086v57.356h-37.589v-16.439c-8.011,0.675-16.112,0.89-24.088-0.105
					c-5.484-0.689-11.122-1.239-16.508-2.624c-5.067-1.301-9.667-3.369-14.511-5.415c-7.301-3.09-14.386-8.122-19.689-13.962
					c-14.518-15.972-21.283-36.664-21.881-58.03c-0.487-17.142,2.965-34.381,6.549-51.071c2.714-12.632,5.679-25.271,7.662-38.049
					c0.668-6.264,0.933-12.562,0.459-18.84c-0.529-2.651-1.211-5.261-2.074-7.822c-0.975-1.893-2.046-3.724-3.223-5.499
					c-1.35-1.517-2.763-2.965-4.266-4.329c-0.926-0.599-1.872-1.162-2.84-1.684c-1.253-0.39-2.526-0.731-3.814-1.009
					c-6.995-0.417-13.989,0.236-20.99,0.599c-10.377,0.542-21.186,0.042-31.173-3.035c-12.096-3.723-20.663-14.191-21.756-26.217
					c24.067,3.744,51.864-1.6,73.996,5.519c36.128,11.616,36.205,47.292,31.437,78.875c-4.851,32.112-12.514,62.874-1.74,93.512
					c7.482,21.269,47.848,54.404,68.449,31.889c0.014-0.02,0.035-0.042,0.055-0.063c4.441-4.885,4.287-21.777,4.127-28.66
					c1.134,9.583,2.868,22.39,8.352,27.679c3.863,3.737,9.584,3.731,18.276-3.772
					C1289.687,654.378,1291.859,651.385,1293.557,648.086z"/>
			</g>
		</g>
		<g>
			<g>
				<g>
					<g>
						<g>
							<path style="fill:#575C63;" d="M166.285,559.823c0,6.43,5.212,11.641,11.641,11.641h11.641
								c6.43,0,11.641-5.212,11.641-11.641v-89.64c0-6.429-5.212-11.641-11.641-11.641h-11.641c-6.43,0-11.641,5.212-11.641,11.641
								V559.823z"/>
							<path style="fill:#FFFFFF;" d="M174.142,559.823c0,6.43,5.212,11.641,11.642,11.641h11.641
								c6.43,0,11.641-5.212,11.641-11.641v-89.64c0-6.429-5.212-11.641-11.641-11.641h-11.641c-6.43,0-11.642,5.212-11.642,11.641
								V559.823z"/>
							<path style="fill:#575C63;" d="M180.522,478.55c0,6.751,5.472,12.223,12.222,12.223c6.751,0,12.223-5.472,12.223-12.223
								c0-6.75-5.472-12.222-12.223-12.222C185.994,466.327,180.522,471.799,180.522,478.55z"/>
							<g>
								<path style="fill:#575C63;" d="M180.522,513.474c0,6.75,5.472,12.223,12.222,12.223c6.751,0,12.223-5.473,12.223-12.223
									c0-6.75-5.472-12.223-12.223-12.223C185.994,501.251,180.522,506.724,180.522,513.474z"/>
							</g>
							<g>
								<path style="fill:#575C63;" d="M180.522,548.398c0,6.751,5.472,12.223,12.222,12.223c6.751,0,12.223-5.472,12.223-12.223
									c0-6.75-5.472-12.222-12.223-12.222C185.994,536.176,180.522,541.648,180.522,548.398z"/>
							</g>
						</g>
						<g>
							<path style="fill:#3D4046;" d="M188.893,477.508c0,3.076,2.804,5.568,6.264,5.568h18.096c3.459,0,6.264-2.492,6.264-5.568
								l0,0c0-3.075-2.804-5.568-6.264-5.568h-18.096C191.698,471.94,188.893,474.433,188.893,477.508L188.893,477.508z"/>
							<path style="fill:#3D4046;" d="M190.285,513.698c0,3.076,2.804,5.568,6.264,5.568h18.095c3.46,0,6.264-2.492,6.264-5.568l0,0
								c0-3.075-2.804-5.568-6.264-5.568h-18.095C193.089,508.131,190.285,510.624,190.285,513.698L190.285,513.698z"/>
							<path style="fill:#3D4046;" d="M191.677,549.889c0,3.076,2.804,5.568,6.264,5.568h18.095c3.459,0,6.264-2.492,6.264-5.568
								l0,0c0-3.075-2.804-5.568-6.264-5.568h-18.095C194.481,544.321,191.677,546.815,191.677,549.889L191.677,549.889z"/>
							<path style="fill:#5881F5;" d="M299.122,680.002c29.595,0.001,38.765-27.811,43.372-52.943
								c1.713-9.347,4.279-20.36,10.324-31.165c3.133-5.602,7.574-9.126,12.276-12.857c3.047-2.417,6.198-4.917,9.01-8.05
								l-1.554-1.395c-2.694,3.001-5.774,5.445-8.753,7.809c-4.654,3.692-9.466,7.51-12.801,13.472
								c-6.193,11.072-8.811,22.293-10.555,31.808c-2.155,11.755-5.617,26.601-13.336,37.142
								c-8.633,11.791-20.823,16.12-37.269,13.232c-20.02-3.516-33.268-25.12-33.082-43.091c0.12-11.55,1.749-23.242,3.326-34.549
								c2.205-15.82,4.486-32.178,2.774-48.742c-0.825-7.982-4.214-27.256-17.83-33.824c-8.783-4.236-22.343-4.219-33.236-4.198
								l-2.016,0.001v2.088l2.018-0.001c10.688-0.022,23.975-0.038,32.327,3.99c12.668,6.111,15.87,24.525,16.659,32.158
								c1.686,16.312-0.577,32.542-2.766,48.239c-1.586,11.372-3.225,23.131-3.346,34.815
								c-0.195,18.827,13.745,41.469,34.808,45.169C292.91,679.716,296.122,680.002,299.122,680.002z"/>
							<path style="fill:#1F191A;" d="M346.482,682.032c41.466,0.001,53.475-17.803,59.863-37.507
								c2.529-7.801,6.32-16.994,15.253-26.022c1.743-1.762,4.658-3.805,8.034-6.173c11.748-8.235,29.502-20.682,28.95-42.502
								l-2.087,0.053c0.523,20.701-16.679,32.76-28.062,40.74c-3.459,2.424-6.445,4.519-8.321,6.413
								c-9.241,9.339-13.149,18.812-15.755,26.847c-6.953,21.445-20.918,40.543-75.472,35.127
								c-30.548-3.033-50.116-14.353-49.85-28.839c0.176-9.635,2.59-19.421,4.924-28.884c3.29-13.337,6.691-27.127,4.128-41.146
								c-1.234-6.749-6.273-23.039-26.363-28.517c-12.858-3.506-32.875-3.488-48.958-3.474l-2.996,0.002v2.088l2.997-0.002
								c15.957-0.013,35.82-0.032,48.408,3.4c18.945,5.165,23.695,20.518,24.858,26.878c2.484,13.579-0.864,27.148-4.1,40.27
								c-2.362,9.575-4.805,19.477-4.985,29.346c-0.287,15.657,20.019,27.807,51.731,30.956
								C335.152,681.728,341.069,682.032,346.482,682.032z"/>
						</g>
					</g>
					<path style="fill:#FF3647;" d="M295.834,670.736c7.302,0,13.759-1.923,19.282-5.756c15.651-10.86,21.33-35.394,24.53-55.555
						c1.712-10.791,4.277-23.503,10.317-35.973c3.118-6.438,7.542-10.491,12.227-14.783c3.056-2.8,6.215-5.694,9.04-9.329
						l-2.198-1.709c-2.681,3.449-5.753,6.263-8.723,8.985c-4.671,4.279-9.501,8.705-12.851,15.621
						c-6.198,12.795-8.817,25.758-10.562,36.75c-3.113,19.614-8.582,43.443-23.368,53.704c-7.198,4.994-16.212,6.438-26.793,4.293
						c-19.868-4.03-33.016-28.893-32.83-49.585c0.12-13.338,1.749-26.839,3.326-39.896c2.205-18.269,4.486-37.159,2.774-56.288
						c-0.827-9.237-4.231-31.547-17.953-39.191c-9.644-5.372-27.965-6.68-36.769-7.309l-0.198,2.777
						c8.605,0.614,26.509,1.893,35.612,6.964c12.562,6.998,15.749,28.212,16.536,37.008c1.686,18.836-0.577,37.579-2.766,55.705
						c-1.586,13.133-3.225,26.712-3.346,40.205c-0.094,10.517,3.286,22.516,9.043,32.096c6.604,10.989,15.844,18.179,26.018,20.242
						C289.543,670.395,292.764,670.736,295.834,670.736z"/>
				</g>
				<g>
					<g>
						<g>
							<rect x="364.652" y="668.457" style="fill:#0A0D12;" width="10.457" height="58.554"/>
							<path style="fill:#0A0D12;" d="M394.413,731.76v-2.902c0-5.827-4.802-10.55-10.725-10.55h-27.614
								c-5.923,0-10.725,4.724-10.725,10.55v2.902H394.413z"/>
						</g>
						<g>
							<rect x="1102.698" y="668.457" style="fill:#0A0D12;" width="10.456" height="58.554"/>
							<path style="fill:#0A0D12;" d="M1132.458,731.76v-2.902c0-5.827-4.801-10.55-10.724-10.55h-27.614
								c-5.924,0-10.725,4.724-10.725,10.55v2.902H1132.458z"/>
						</g>
					</g>
					<g>
						<g>
							<g>
								<rect x="1076.928" y="228.708" style="fill:#0A0D12;" width="17.08" height="90.055"/>
								<g>
									<rect x="1022.585" y="217.415" style="fill:#0A0D12;" width="125.766" height="75.692"/>
									<path style="fill:#2C343D;" d="M1047.04,278.842c0,3.361,2.724,6.085,6.085,6.085h82.154c3.36,0,6.085-2.724,6.085-6.085
										V231.68c0-3.362-2.725-6.086-6.085-6.086h-82.154c-3.361,0-6.085,2.725-6.085,6.086V278.842z"/>
									<g>
										<path style="fill:#00DD55;" d="M1029.377,234.143c0,3.216,2.609,5.823,5.823,5.823c3.216,0,5.824-2.607,5.824-5.823
											c0-3.216-2.608-5.823-5.824-5.823C1031.986,228.32,1029.377,230.927,1029.377,234.143z"/>
										<path style="fill:#FF3647;" d="M1029.377,254.328c0,3.216,2.609,5.823,5.823,5.823c3.216,0,5.824-2.607,5.824-5.823
											c0-3.216-2.608-5.823-5.824-5.823C1031.986,248.504,1029.377,251.111,1029.377,254.328z"/>
									</g>
									<g>
										<rect x="1089.737" y="241.032" style="fill:#FFFFFF;" width="41.922" height="3.289"/>
										<polygon style="fill:#FFFFFF;" points="1131.659,249.802 1131.659,252.387 1109.146,252.387 1109.146,253.091 
											1090.515,253.091 1090.515,249.802 										"/>
										<polygon style="fill:#FFFFFF;" points="1095.172,258.572 1109.146,258.572 1109.146,259.903 1131.659,259.903 
											1131.659,261.861 1095.172,261.861 										"/>
										<rect x="1059.461" y="258.572" style="fill:#FFFFFF;" width="23.289" height="3.21"/>
										<polygon style="fill:#FFFFFF;" points="1131.659,267.341 1131.659,270.63 1108.369,270.63 1108.369,268.047 
											1095.947,268.047 1095.947,270.63 1085.079,270.63 1085.079,267.341 										"/>
									</g>
								</g>
							</g>
							<g>
								<path style="fill:#A9ABA3;" d="M1134.678,643.395c0,0.417-0.035,0.939-0.105,1.566c-0.682,6.25-4.677,22.327-10.105,35.495
									H355.031c-4.371-12.333-7.538-27.429-8.665-35.495c-0.299-2.109-0.453-3.737-0.453-4.711l0.105-96.205l0.007-6.96
									l0.021-16.703v-1.392l0.097-85.876c0-7.92,10.106-14.344,22.578-14.344h740.672c12.479,0,22.584,6.424,22.584,14.344
									l1.1,85.876l0.02,1.392l0.216,16.703l0.09,6.96L1134.678,643.395z"/>
								<path style="fill:#92938C;" d="M1124.468,680.456c5.428-13.167,9.422-29.247,10.105-35.491H346.365
									c1.128,8.063,4.298,23.156,8.67,35.491H1124.468z"/>
							</g>
							<path style="fill:#C5C6C2;" d="M1171.801,326.899v180.954c0,7.69-6.229,13.919-13.92,13.919H319.926
								c-7.69,0-13.92-6.229-13.92-13.919V326.899c0-7.69,6.229-13.92,13.92-13.92h837.956
								C1165.572,312.98,1171.801,319.209,1171.801,326.899z"/>
							<path style="fill:#FFFFFF;" d="M1171.801,326.899v20.866H306.006v-20.866c0-7.69,6.229-13.92,13.92-13.92h837.956
								C1165.572,312.98,1171.801,319.209,1171.801,326.899z"/>
							<path style="fill:#090906;" d="M1015.902,312.98v144.763c0,7.69-4.691,13.92-10.474,13.92H374.943
								c-5.115,0-9.375-4.872-10.286-11.323c-0.126-0.843-0.188-1.705-0.188-2.596V312.98H1015.902z"/>
							<path style="fill:#757A80;" d="M1015.902,404.139v53.604c0,7.69-4.691,13.92-10.474,13.92H374.943
								c-5.115,0-9.375-4.872-10.286-11.323c-0.126-0.843-0.188-1.705-0.188-2.596v-53.604H1015.902z"/>
							<polygon style="fill:#CED1C3;" points="953.832,414.582 413.702,414.582 421.358,404.141 953.832,404.141 							"/>
							<rect x="389.523" y="363.318" style="fill:#303029;" width="567.093" height="7.178"/>
							<rect x="389.523" y="341.047" style="fill:#303029;" width="567.093" height="7.178"/>
							<polygon style="fill:#6B6B65;" points="1133.314,537.084 346.025,537.084 346.046,520.381 1133.098,520.381 							"/>
							<polygon style="fill:#ACAE9E;" points="928.209,324.116 928.209,331.771 916.378,331.771 916.378,381.882 928.209,381.882 
								928.209,424.336 958.832,424.336 958.832,324.116 							"/>
							<rect x="947.569" y="324.116" style="fill:#2C5990;" width="25.057" height="110.671"/>
							<path style="fill:#303029;" d="M421.538,312.98v90.477l-0.682,0.682l-56.2,56.2c-0.126-0.843-0.188-1.705-0.188-2.596V312.98
								H421.538z"/>
							<polygon style="fill:#303029;" points="1015.902,312.98 1015.902,436.864 982.496,403.457 982.496,312.98 							"/>
							<g>
								<rect x="1044.902" y="364.482" style="fill:#F8F875;" width="47.327" height="65.422"/>
								<rect x="1055.341" y="374.226" style="fill:#FF3647;" width="26.447" height="2.784"/>
								<rect x="1055.341" y="404.109" style="fill:#FF3647;" width="26.447" height="7.743"/>
							</g>
							<path style="fill:#F8F875;" d="M688.102,408.051c-0.514,0-1.041-0.024-1.584-0.075c-4.619-0.427-8.713-3.319-11.529-8.144
								c-3.292-5.64-4.283-12.936-2.662-18.536c-1.55,2.275-2.532,4.933-3.56,7.714c-1.269,3.432-2.581,6.98-5.078,9.819
								c-4.68,5.32-13.842,9.673-21.075,7.746c-10.312-2.747-12.819-6.942-16.056-13.559c-1.761-3.6-2.184-7.517-2.594-11.306
								c-0.344-3.182-0.669-6.187-1.764-8.738l0.64-0.275c1.136,2.647,1.466,5.703,1.816,8.938c0.404,3.729,0.82,7.585,2.528,11.074
								c2.95,6.031,5.081,10.387,15.61,13.192c6.971,1.857,15.833-2.371,20.373-7.533c2.412-2.742,3.701-6.228,4.947-9.6
								c1.26-3.408,2.564-6.932,5.026-9.625l1.461-1.599l-0.887,1.976c-2.502,5.573-1.73,13.781,1.877,19.961
								c2.7,4.625,6.604,7.396,10.992,7.802c15.2,1.4,18.219-18.673,19.84-29.461l0.324-2.144l0.469,1.266
								c0.753,2.036,0.891,5.122,1.051,8.696c0.389,8.667,0.873,19.453,11.002,19.589c3.446,0.056,6.23-0.945,8.276-2.949
								c4.934-4.831,5.008-14.507,5.068-22.282c0.02-2.543,0.037-4.74,0.223-6.506l0.692,0.073
								c-0.183,1.732-0.199,3.912-0.219,6.437c-0.06,7.905-0.137,17.741-5.278,22.775c-2.183,2.138-5.129,3.219-8.772,3.148
								c-10.786-0.145-11.285-11.295-11.688-20.254c-0.115-2.566-0.225-5.024-0.587-6.904
								C705.353,389.558,702.209,408.051,688.102,408.051z"/>
							<path style="fill:#FF3647;" d="M710.403,408.02c-0.544,0-1.103-0.026-1.68-0.08c-4.849-0.448-9.133-3.462-12.066-8.486
								c-2.592-4.442-3.793-9.891-3.462-14.796c-0.536,1.238-1.016,2.537-1.507,3.864c-1.291,3.491-2.626,7.101-5.208,10.037
								c-4.821,5.481-14.286,9.958-21.777,7.959c-10.604-2.825-13.179-7.132-16.502-13.926c-1.814-3.709-2.244-7.688-2.66-11.537
								c-0.338-3.129-0.658-6.083-1.711-8.539l1.919-0.824c1.176,2.744,1.513,5.849,1.868,9.138
								c0.397,3.669,0.807,7.464,2.46,10.843c2.869,5.865,4.942,10.103,15.164,12.826c6.621,1.763,15.367-2.426,19.672-7.32
								c2.326-2.645,3.593-6.07,4.817-9.382c1.284-3.471,2.611-7.06,5.165-9.854l4.384-4.796l-2.661,5.927
								c-2.416,5.38-1.658,13.327,1.843,19.325c2.583,4.427,6.296,7.076,10.455,7.461c14.544,1.338,17.389-17.571,19.088-28.872
								l0.727-4.815l1.406,3.8c0.79,2.137,0.931,5.274,1.094,8.907c0.395,8.81,0.843,18.797,10.315,18.924
								c3.169,0.035,5.702-0.932,7.743-2.979c6.222-6.241,5.978-20.868,5.847-28.725c-0.018-1.03-0.033-1.955-0.033-2.747h2.088
								c0,0.782,0.015,1.695,0.032,2.712c0.136,8.166,0.389,23.367-6.456,30.234c-2.426,2.434-5.534,3.642-9.25,3.593
								c-11.442-0.154-11.98-12.155-12.373-20.919c-0.023-0.519-0.046-1.034-0.071-1.539
								C727.084,394.298,722.909,408.019,710.403,408.02z"/>
							<g>
								<polygon style="fill:#997043;" points="947.697,471.663 418.351,471.663 459.121,420.16 896.194,420.16 								"/>
								<path style="fill:#543921;" d="M913.925,469.227h-459.08l37.612-45.587h373.956L913.925,469.227z M462.228,465.747h443.044
									l-40.259-38.627H494.097L462.228,465.747z"/>
								<path style="fill:#543921;" d="M884.808,460.185l-398.46-0.341l22.629-29.236l0.341-0.001l342.679-1.045L884.808,460.185z
									 M489.184,458.455l392.089,0.336l-29.824-27.836l-341.788,1.042L489.184,458.455z"/>
							</g>
							<g>
								<rect x="609.527" y="369.792" style="fill:#303029;" width="16.718" height="56.961"/>
								<rect x="612.613" y="389.994" style="fill:#303029;" width="9.148" height="69.141"/>
								<rect x="647.412" y="376.075" style="fill:#303029;" width="9.148" height="53.829"/>
								<rect x="574.301" y="363.526" style="fill:#2C5990;" width="169.479" height="23.008"/>
							</g>
							<g>
								<g>
									<g>
										<rect x="364.175" y="303.943" style="fill:#DADBCC;" width="55.482" height="12.527"/>
										<path style="fill:#090906;" d="M371.739,315.501c-0.946,1.784-3.164,2.465-4.952,1.521l0,0
											c-1.789-0.944-2.471-3.155-1.525-4.938l34.269-64.59c0.947-1.784,3.164-2.464,4.953-1.521l0,0
											c1.788,0.944,2.47,3.155,1.524,4.939L371.739,315.501z"/>
									</g>
									<g>
										<rect x="964.183" y="303.943" style="fill:#DADBCC;" width="55.481" height="12.527"/>
										<path style="fill:#090906;" d="M1012.102,315.501c0.946,1.784,3.164,2.465,4.951,1.521l0,0
											c1.789-0.944,2.472-3.155,1.524-4.938l-34.269-64.59c-0.946-1.784-3.164-2.464-4.952-1.521l0,0
											c-1.788,0.944-2.471,3.155-1.525,4.939L1012.102,315.501z"/>
									</g>
								</g>
								<g>
									<g>
										<polygon style="fill:#0034C5;" points="372.126,111.111 392.207,299.043 993.177,299.043 1011.714,111.111 										"/>
										<path style="fill:#7688AC;" d="M955.558,254.646c-1.338,7.499-8.301,13.578-15.552,13.578H440.417
											c-7.251,0-14.032-6.079-15.148-13.578l-14.742-99.137c-1.115-7.499,4.321-13.579,12.141-13.579h538.843
											c7.82,0,13.075,6.08,11.736,13.579L955.558,254.646z"/>
									</g>
									<g>
										<g>
											<g>
												<polygon style="fill:#003EB0;" points="359.82,111.105 316.984,161.22 1066.624,161.22 1023.79,111.105 												"/>
												<rect x="317.217" y="161.22" style="fill:#2D83E8;" width="749.639" height="6.266"/>
											</g>
											<g>
												<polygon style="fill:#8DA2C8;" points="451.63,117.27 420.276,153.951 968.978,153.951 937.625,117.27 												"/>
											</g>
										</g>
										<path style="fill:#090906;" d="M741.123,160.213h-98.407v-15.66c0-9.402,7.671-17.051,17.099-17.051h64.208
											c9.428,0,17.099,7.649,17.099,17.051V160.213z M648.998,153.949h85.844v-9.396c0-5.948-4.853-10.788-10.818-10.788
											h-64.208c-5.965,0-10.818,4.839-10.818,10.788V153.949z"/>
									</g>
								</g>
							</g>
							<path style="fill:#090906;" d="M645.255,370.05c0,2.306-1.869,4.176-4.176,4.176c-2.306,0-4.176-1.87-4.176-4.176
								c0-2.306,1.87-4.176,4.176-4.176C643.386,365.874,645.255,367.744,645.255,370.05z"/>
							<path style="fill:#090906;" d="M664.743,370.05c0,2.306-1.869,4.176-4.176,4.176c-2.306,0-4.176-1.87-4.176-4.176
								c0-2.306,1.87-4.176,4.176-4.176C662.874,365.874,664.743,367.744,664.743,370.05z"/>
							<path style="fill:#090906;" d="M681.446,370.05c0,2.306-1.869,4.176-4.176,4.176c-2.306,0-4.176-1.87-4.176-4.176
								c0-2.306,1.87-4.176,4.176-4.176C679.577,365.874,681.446,367.744,681.446,370.05z"/>
						</g>
						<g>
							<g>
								<rect x="368.809" y="553.444" style="fill:#0034C5;" width="361.249" height="73.084"/>
								<path style="fill:#FFFFFF;" d="M633.991,605.634c0,1.729-1.402,3.131-3.132,3.131H468.008c-1.73,0-3.132-1.402-3.132-3.131
									l0,0c0-1.73,1.402-3.132,3.132-3.132h162.851C632.589,602.502,633.991,603.904,633.991,605.634L633.991,605.634z"/>
							</g>
							<g>
								<rect x="747.75" y="553.444" style="fill:#0034C5;" width="361.249" height="73.084"/>
								<path style="fill:#FFFFFF;" d="M1012.931,605.634c0,1.729-1.401,3.131-3.131,3.131H846.949
									c-1.729,0-3.131-1.402-3.131-3.131l0,0c0-1.73,1.402-3.132,3.131-3.132H1009.8
									C1011.529,602.502,1012.931,603.904,1012.931,605.634L1012.931,605.634z"/>
							</g>
						</g>
					</g>
				</g>
			</g>
			<g>
				<g>
					<path style="fill:#FDA271;" d="M723.01,336.319c-5.131,5.921-23.669,11.022-25.279,12.486
						c-1.885,1.714-2.014,3.332-3.409,5.013c-5.313,6.404-21.713,14.55-18.211,15.884c7.308,2.784,21.339-12.506,31.899-10.487
						c0.273,4.423-5.921,9.475-1.974,10.659c4.384,0.62,7.801-9.845,11.448-13.421c4.954-4.859,11.448-9.869,15.001-13.027
						L723.01,336.319z"/>
					<g>
						<path style="fill:#FF3647;" d="M850.801,225.287c-0.612,0.849-1.26,1.74-1.935,2.666
							c-14.233,19.536-41.195,54.905-50.034,65.54c-15.687,18.882-33.31,33.776-59.959,48.28c-3.905,2.123-7.997,4.238-12.305,6.354
							c-4.837-1.921-8.345-4.977-12.18-8.004c23.907-23.552,37.68-44.313,58.49-70.294c18.938-23.65,28.931-54.801,50.89-74.066
							L850.801,225.287z"/>
						<path style="fill:#F5132D;" d="M848.866,227.952c-14.233,19.536-41.195,54.905-50.034,65.54
							c-15.687,18.882-33.31,33.776-59.959,48.28c0.376-0.327,0.759-0.64,1.134-0.953c10.022-8.254,19.947-18.311,28.563-28.174
							c9.25-10.586,19.014-20.99,26.447-33.059c6.494-10.537,12.966-22.18,18.304-33.421c3.271-6.89,6.64-13.697,10.099-20.531
							c2.324-4.579,6.006-9.319,6.967-14.268L848.866,227.952z"/>
					</g>
				</g>
				<g>
					<g>
						<g>
							<g>
								<path style="fill:#FDA271;" d="M800.39,734.459c0.256,0.459,0.589,0.867,0.99,1.23c5.507,5.055,23.772,1.791,33.3,1.758
									h0.279c1.989,0.005,4.298,0.11,6.506,0c4.39-0.215,8.387-1.256,8.715-5.512c0.066-0.839-0.013-1.8-0.255-2.902
									c-0.7-3.19-2.403-7.082-3.338-10.896c-0.749-3.042,0.927-20.695,2.047-23.245h-13.938c-0.007,0.141-1.99,14.248-2.015,14.4
									c-0.486,2.913-4.665,7.606-8.526,10.919c-1.571,1.353-3.093,2.473-4.285,3.148c-1.378,0.777-3.189,1.49-5.15,2.203
									C808.253,727.907,800.117,730.206,800.39,734.459z"/>
							</g>
							<path style="fill:#0A0604;" d="M800.39,734.459c0.256,0.459,0.589,0.867,0.99,1.23c5.507,5.055,23.772,1.791,33.3,1.758
								c1.315-0.103,2.643-0.166,3.984-0.166c0.77,0,1.744,0.079,2.802,0.166c4.39-0.215,8.387-1.256,8.715-5.512
								c0.066-0.839-0.013-1.8-0.255-2.902c-0.7-3.19-2.403-7.082-3.338-10.896c-2.613,2.506-6.484,5.541-9.324,1.394v-1.226
								c-0.029-2.18-0.113-6.776-2.596-8.412c-0.719-0.476-1.379-0.646-1.986-0.602c-0.486,2.913-4.665,7.606-8.526,10.919
								c-1.571,1.353-3.093,2.473-4.285,3.148c-1.378,0.777-3.189,1.49-5.15,2.203C808.253,727.907,800.117,730.206,800.39,734.459z
								"/>
						</g>
						<g>
							<path style="fill:#FDA271;" d="M952.959,733.535c2.448,2.339,10.868,2.422,13.641,2.422c6.079,0,13.41-0.125,17.624-1.959
								c0.065-1.575-1.045-3.299-2.564-5.026c-5.741-0.151-12.652-0.061-15.06,0.158c-4.773,0.422-9.025,2.775-13.402,4.37
								c1.099-4.24,2.654-9.718,3.548-14.853c2.382-0.721,7.256-1.154,12.103-1.317c0.031,0,0.058-0.005,0.09-0.005
								c1.138-0.036,2.277-0.06,3.381-0.069c0.229,0,0.446-0.003,0.646-0.003c-0.38-1.448-0.716-3.088-0.979-4.725
								c-0.559-3.523-1.196-15.702-0.691-17.258l-12.432-0.377c0.477,2.751-0.619,15.339-1.266,19.06
								c-0.224,1.278-0.485,2.58-0.773,3.878c-0.867,3.907-1.951,7.788-2.776,10.971
								C953.564,730.665,953.168,732.288,952.959,733.535z"/>
							<path style="fill:#FFB576;" d="M953.197,733.499c4.378-1.594,8.63-3.948,13.402-4.37c2.408-0.218,9.319-0.309,15.06-0.158
								c-1.056-1.203-2.31-2.404-3.495-3.56c-0.012-0.008-0.022-0.018-0.031-0.025c-1.663-1.611-3.191-3.118-3.849-4.371
								c-0.457-0.866-0.913-2.202-1.32-3.765c-0.2,0-0.417,0.003-0.646,0.003c-0.177,0.001-0.37,0.005-0.565,0.008
								c-0.738,0.01-1.484,0.023-2.235,0.048c-0.19,0.004-0.383,0.008-0.581,0.014c-0.031,0-0.058,0.005-0.09,0.005
								c-4.847,0.164-9.721,0.597-12.103,1.317C955.851,723.781,954.296,729.26,953.197,733.499z"/>
							<path style="fill:#FFB576;" d="M952.8,735.348c0.001,0.046,0.006,0.088,0.008,0.128c0.007,0.041,0.01,0.08,0.016,0.117
								c0.004,0.012,0.004,0.024,0.008,0.033c0.011,0.065,0.026,0.124,0.042,0.174c0.019,0.059,0.04,0.11,0.063,0.157
								c1.593,2.895,11.106,2.986,14.089,2.986c8.539,0,15.703,0.622,17.087-4.254c0.019-0.068,0.036-0.134,0.049-0.201
								c0.009-0.048,0.018-0.094,0.024-0.141c0.01-0.048,0.016-0.092,0.022-0.141c0-0.022,0.003-0.045,0.008-0.069
								c0.001-0.039,0.004-0.078,0.004-0.117c0.005-0.005,0.005-0.014,0.005-0.02c-4.213,1.834-11.544,1.959-17.624,1.959
								c-2.773,0-11.193-0.084-13.641-2.422c-0.04,0.237-0.074,0.458-0.101,0.666c0,0.009-0.003,0.019-0.003,0.027
								c-0.022,0.184-0.039,0.358-0.048,0.518c0,0.021-0.005,0.042-0.005,0.061C952.79,735.005,952.787,735.188,952.8,735.348z"/>
							<path style="fill:#0A0604;" d="M952.8,735.348c0.001,0.046,0.006,0.088,0.008,0.128c0.007,0.041,0.01,0.08,0.016,0.117
								c0.004,0.012,0.004,0.024,0.008,0.033c0.007,0.065,0.023,0.124,0.042,0.174c0.019,0.059,0.04,0.11,0.063,0.157
								c1.593,2.895,11.106,2.986,14.089,2.986c8.539,0,15.703,0.622,17.087-4.254c0.019-0.068,0.036-0.134,0.049-0.201
								c0.009-0.048,0.018-0.094,0.024-0.141c0.01-0.048,0.016-0.092,0.022-0.141c0-0.022,0.003-0.045,0.008-0.069
								c0.001-0.039,0.004-0.078,0.004-0.117c0.005-0.005,0.005-0.014,0.005-0.02c-4.213,1.834-11.544,1.959-17.624,1.959
								c-2.773,0-11.193-0.084-13.641-2.422l-0.003-0.001c-0.039,0.235-0.071,0.46-0.098,0.668c0,0.009-0.003,0.019-0.003,0.027
								c-0.022,0.184-0.037,0.355-0.048,0.518c0,0.021-0.005,0.042-0.005,0.061C952.79,735.008,952.79,735.188,952.8,735.348z"/>
							<path style="fill:#0A0604;" d="M952.8,735.348c0.001,0.046,0.006,0.088,0.008,0.128c0.007,0.041,0.01,0.08,0.016,0.117
								c0.004,0.012,0.004,0.024,0.008,0.033c0.007,0.065,0.023,0.124,0.042,0.174c0.019,0.059,0.04,0.11,0.063,0.157
								c1.593,2.895,12.406,4.064,15.389,4.064c8.537,0,14.403-0.456,15.787-5.332c0.019-0.068,0.036-0.134,0.049-0.201
								c0.009-0.048,0.018-0.094,0.024-0.141c0.01-0.048,0.016-0.092,0.022-0.141c0-0.022,0.003-0.045,0.008-0.069
								c0.001-0.039,0.004-0.078,0.004-0.117c0.005-0.005,0.005-0.014,0.005-0.02c0.065-1.575-1.045-3.299-2.564-5.026
								c-1.056-1.203-2.31-2.404-3.495-3.56c-0.012-0.008-0.022-0.018-0.031-0.025c-9.809-10.667-4.3-16.381-10.83-16.381
								c-6.124,0-6.304,8.59-10.48,8.823c-0.867,3.907-1.951,7.788-2.776,10.971c-0.485,1.864-0.881,3.487-1.09,4.733l-0.003-0.001
								c-0.039,0.235-0.071,0.46-0.098,0.668c0,0.009-0.003,0.019-0.003,0.027c-0.022,0.184-0.039,0.358-0.048,0.518
								c0,0.021-0.005,0.042-0.005,0.061C952.79,735.005,952.787,735.188,952.8,735.348z"/>
						</g>
						<path style="fill:#332E2C;" d="M939.639,381.147c-6.586,28.351-18.17,30.868-27.741,55.913
							c-4.478,11.712-8.261,44.48-11.354,57.727c-10.103,43.306-8.836,73.23-14.604,117.684
							c-1.661,12.835-24.26,67.203-35.039,90.439h-22.716c2.144-21.907,3.615-40.813,5.935-59.965
							c2.376-19.621,5.647-39.495,11.449-63.114c12.886-52.472,11.168-136.59,21.472-195.865L939.639,381.147z"/>
						<path style="fill:#332E2C;" d="M973.62,530.326c0.028-28.41-1.991-70.391-3.341-107.891
							c-0.233-6.49-0.981-32.336-1.162-38.466l-77.949-4.872c1.447,4.097,10.76,32.618,12.082,36.845
							c14.727,46.971,22.195,100.993,32.517,148.431c4.183,19.223,7.314,38.258,9.757,57.293c0.884,6.82,1.671,13.641,2.387,20.469
							c2.109,20.12,3.612,40.297,4.921,60.772h22.438c4.552-22.369,11.393-69.208,10.113-82.091
							C980.928,576.205,973.571,574.792,973.62,530.326z"/>
						<path style="fill:#1E1B1A;" d="M911.899,444.371c-4.478,11.712-8.261,37.17-11.355,50.416
							c-10.103,43.306-8.836,73.23-14.604,117.684c-1.661,12.835-24.26,67.203-35.039,90.439h-22.716
							c2.144-21.907,3.615-40.813,5.935-59.965c9.661,3.059,20.991-0.384,27.125-8.826c8.492-11.7,15.341-25.485,16.08-39.688
							c4.514-86.689,29.299-185.125,28.074-186.62C905.4,407.812,911.401,434.171,911.899,444.371z"/>
						<g>
							<path style="fill:#FF3647;" d="M963.027,373.231l-103.179,0.299c-4.747-23.42-14.643-54.488-20.768-78.826
								c-0.947-3.752-1.907-7.468-2.875-11.122c-0.271-1.009-0.536-2.004-0.8-2.999c-10.224-37.868-20.601-67.851-19.481-74.644
								c0.967-5.916,5.22-8.087,9.451-10.516c1.983-1.141,3.967-2.346,5.602-4.023c1.128-1.141,2.255-2.276,3.417-3.369
								c2.053-1.955,4.155-3.813,6.341-5.553c2.54-2.032,5.178-3.89,7.934-5.533l48.28-9.521l9.494-1.211
								c10.676,0.264,28.597,3.383,32.592,6.653c1.274,1.044,2.311,2.388,3.174,3.974c5.484,10.106,3.585,29.76,3.967,38.94
								c0.02,0.529,0.042,1.065,0.063,1.594c0.021,0.627,0.041,1.26,0.056,1.9c0.125,3.8,0.376,10.745,0.821,19.856
								c1.044,20.915,3.139,53.187,7.204,84.659c1.419,10.982,3.076,21.867,5.018,32.14
								C960.473,361.941,961.698,367.747,963.027,373.231z"/>
							<g>
								<g>
									<path style="fill:#FDA271;" d="M892.183,168.302c-7.621,22.264-21.936,31.589-45.983,35.768
										c-3.862-3.665-5.767-15.176-5.749-25.343c0.004-1.616,0.065-3.086,0.185-4.327c0.578-6.025-2.038-10.756-5.958-9.411
										c-0.349,0.116-0.706,0.286-1.081,0.504c-0.067,0.039-0.129-0.379-0.186-1.05c-0.196-2.215-0.336-7.158-0.336-7.158
										c0.372-6.319-5.24-7.58-7.748-11.168c0,0,38.598-38.358,47.565-35.423c-2.738,2.037-2.479,12.504-2.084,15.09
										c1.566,10.27,6.66,23.85,10.512,33.529c0.691,1.737,1.279,2.933,1.736,3.37
										C888.32,167.892,884.383,167.605,892.183,168.302z"/>
									<path style="fill:#DE7F50;" d="M829.817,162.968c-0.02,0.219,2.11,0.922,3.595,1.473c0.563,0.218,1.039,0.409,1.264,0.546
										c1.77,1.081,3.016-0.177,4.818,2.208c1.614,2.135,0.292,9.282,0.956,11.531c0.433,1.469,6.849,2.072,17.965-8.486
										c4.255-4.041,8.462-10.015,10.663-18.204c2.73-10.156,1.34-16.686,1.404-22.95c0.068-6.611-1.684-10.425,0.25-16.769
										c0.003-0.007,0.005-0.014,0.008-0.021l-45.413,33.819C827.836,149.703,830.19,156.656,829.817,162.968z"/>
								</g>
								<g>
									<g>
										<path style="fill:#FDA271;" d="M814.236,131.337c-2.813-2.223-7.009-1.414-8.175,2.668
											c-1.33,4.667,3.653,10.749,6.732,13.387c3.122,2.678,8.889,6.309,11.467,1.957
											C827.001,144.727,815.942,132.681,814.236,131.337z"/>
										<path style="fill:#DE7F50;" d="M807.655,136.771c-0.548,3.048,3.357,6.671,5.243,8.717
											c-1.479-2.288-3.871-4.92-2.712-7.779c1.196-2.944,4.037-1.143,5.94,0.272c-2.089-0.775-1.429,3.074-0.737,3.971
											c1.118,1.448,2.87,1.4,3.521-0.235C820.108,138.715,809.711,125.306,807.655,136.771z"/>
									</g>
									<path style="fill:#291912;" d="M811.826,104.65l-15.311-6.031c-1.628,11.85,2.56,25.96,12.923,32.871
										C806.647,123.242,807.184,112.407,811.826,104.65z"/>
									<path style="fill:#FDA271;" d="M854.294,166.748c-3.848,3.327-8.957,7.51-14.045,7.197
										c-2.485-0.161-6.828-0.084-11.268-5.297c-2.603-3.055-5.094-6.124-7.321-9.013c-5.074-6.598-8.755-12.235-9.229-14.581
										c-2.645-12.994-1.747-9.138-4.712-15.458c-7.44-15.812-9.521-25.799-0.689-42.239
										c6.014-11.184,28.215-26.126,45.141-12.583c0,0,9.437,10.975,10.474,19.522c0.807,6.668-0.487,10.934-0.87,14.964
										c-0.362,3.779,0.084,7.342,3.8,12.465C879.53,140.969,861.122,160.84,854.294,166.748z"/>
									<g>
										<path style="fill:#DE7F50;" d="M813.922,123.073c3.598-1.446,6.424,2.562,7.592,7.522
											c-3.849,2.193-6.805,2.265-11.295,1.572C810.219,132.167,810.788,124.332,813.922,123.073z"/>
										<path style="fill:#FFFFFF;" d="M810.218,132.169c0.598,0.089,1.177,0.171,1.721,0.226c2.349,0.273,4.304,0.227,6.31-0.372
											c1.055-0.31,2.12-0.777,3.265-1.427c-1.798-2.621-3.063-5.717-5.509-5.832c-0.489-0.027-1.034,0.065-1.635,0.309
											c-1.939,0.776-3.067,3.303-3.647,5.117C810.364,131.312,810.218,132.169,810.218,132.169z"/>
										<path style="fill:#1B0E09;" d="M810.722,130.189c0.357,0.808,0.767,1.556,1.216,2.206c2.349,0.273,4.304,0.227,6.31-0.372
											c0.053-1.406-0.273-3.121-0.979-4.851c-0.365-0.882-0.796-1.692-1.266-2.409c-0.489-0.027-1.034,0.065-1.635,0.309
											C812.43,125.848,811.302,128.375,810.722,130.189z"/>
										<path style="fill:#FFFFFF;" d="M812.426,130.671c0.366,0.891,0.945,1.501,1.298,1.357
											c0.352-0.141,0.342-0.979-0.025-1.868c-0.364-0.893-0.945-1.502-1.298-1.36
											C812.051,128.94,812.061,129.778,812.426,130.671z"/>
									</g>
									<g>
										<path style="fill:#DE7F50;" d="M841.034,113.434c4.879-1.146,7.919,3.87,12.158,4.592
											c-5.275,3.636-8.713,5.745-15.147,6.633C838.638,120.674,835.434,114.749,841.034,113.434z"/>
										<path style="fill:#FFFFFF;" d="M838.048,124.661c1.121-0.155,2.165-0.344,3.148-0.568
											c2.464-0.557,4.571-1.345,6.655-2.405c1.848-0.948,3.678-2.106,5.729-3.519l-0.388-0.143
											c-2.862-0.485-4.805-2.032-7.264-2.602c-1.183-0.281-2.481-0.339-4.057,0.052c-2.155,0.529-2.916,2.051-3.265,3.987
											C838.321,121.033,838.314,122.872,838.048,124.661z"/>
										<path style="fill:#1B0E09;" d="M839.027,120.661c0.557,1.366,1.318,2.545,2.168,3.432
											c2.464-0.557,4.571-1.345,6.655-2.405c0.023-1.292-0.259-2.765-0.86-4.235c-0.304-0.739-0.662-1.421-1.063-2.029
											c-1.183-0.281-2.481-0.339-4.057,0.052c-2.155,0.529-2.916,2.051-3.265,3.987
											C838.723,119.856,838.861,120.257,839.027,120.661z"/>
										<path style="fill:#FFFFFF;" d="M840.912,121.788c0.367,0.891,1.002,1.477,1.418,1.308
											c0.421-0.169,0.464-1.028,0.097-1.918c-0.366-0.891-0.998-1.48-1.42-1.31
											C840.588,120.035,840.546,120.896,840.912,121.788z"/>
									</g>
									<path style="fill:#291912;" d="M805.731,121.642c3.011-0.916,6.374-1.48,10.399-1.736l-0.613-5.395
										c-3.25-0.338-10.281,2.212-11.44,3.764C804.643,119.252,805.155,120.672,805.731,121.642z"/>
									<path style="fill:#291912;" d="M848.207,103.706c-1.556-0.324-3.286-0.25-5.315,0.158
										c-4.172,0.839-8.702,2.663-12.894,5.882l3.033,5.426c5.297-3.777,10.595-6.778,15.613-7.855
										C848.479,106.117,848.337,104.913,848.207,103.706z"/>
									<g>
										<path style="fill:#DE7F50;" d="M825.356,129.994c-0.022,0.081-0.033,0.167-0.046,0.254
											c-0.043-0.072-0.082-0.152-0.128-0.221L825.356,129.994z"/>
										<path style="fill:#DE7F50;" d="M825.309,130.247c2.802,7.068,5.518,12.132,5.518,12.132s4.151-1.292,7.72-1.299
											c-1.662,1.51-7.55,5.486-9.442,3.895C827.776,143.852,825.002,132.169,825.309,130.247z"/>
									</g>
									<g>
										<path style="fill:#291912;" d="M869.822,113.005l-5.102,12.987c-3.995-2.276-6.076-20.246-11.95-25.055
											c-3.821-3.118-0.724-1.594-5.22-2.784c-4.266-1.128-9.305-3.8-12.061-6.96c-6.528,6.904-29.321,23.517-39.9,15.778
											c-3.188-2.331-4.622-5.303-4.586-8.582c0.069-6.264,5.498-13.634,14.33-19.724c21.61-14.901,42.607-16.544,57.181-4.768
											c2.52,2.04,4.412,4.552,5.693,7.329c1.253,2.673,1.927,5.596,2.081,8.575c0.216,4.287-0.745,8.386-0.953,12.527
											C869.174,105.641,870.267,110.861,869.822,113.005z"/>
										<path style="fill:#180D08;" d="M869.822,113.005l-5.102,12.987c-3.995-2.276-6.076-20.246-11.95-25.055
											c-3.821-3.118-0.724-1.594-5.22-2.784c-4.266-1.128-9.305-3.8-12.061-6.96c-6.528,6.904-29.321,23.517-39.9,15.778
											c-3.188-2.331-4.622-5.303-4.586-8.582c2.101,0.877,4.607,1.086,7.934,0.703c6.605-0.752,14.734-3.939,20.323-7.551
											c4.357-2.812,8.547-9.41,13.92-10.454c4.294-0.828,9.939,3.898,14.295,4.942c0.362-3.661-3.222-6.73-4.969-9.598
											c6.5,0.863,11.65,5.192,16.181,9.938c0.898-2.484,0.396-5.749,0.536-8.491c2.332,2.387,4.586,5.213,6.041,8.129
											c0.167-0.02,1.065-0.028,1.232,0c0.842-1.545,1.371-3.139,1.712-4.781c1.253,2.673,1.927,5.596,2.081,8.575
											c0.216,4.287-0.745,8.386-0.953,12.527C869.174,105.641,870.267,110.861,869.822,113.005z"/>
									</g>
									<g>
										<path style="fill:#FDA271;" d="M862.756,111.815c0.841-3.786,5.267-6.662,9.466-4.862
											c4.798,2.053,4.958,10.204,4.2,14.486c-0.77,4.346-3.203,11.486-8.892,10.662
											C861.493,131.224,862.247,114.111,862.756,111.815z"/>
										<path style="fill:#DE7F50;" d="M872.906,110.107c2.842,1.605,2.089,7.226,1.952,10.137
											c-0.418-2.744-0.275-6.461-3.529-7.44c-3.349-1.007-4.537,2.521-5.171,5.023c1.296-2.226,3.662,0.903,3.722,2.067
											c0.097,1.888-1.523,3.282-3.374,2.713C863.113,121.565,862.216,104.075,872.906,110.107z"/>
									</g>
									<path style="fill:#180D08;" d="M854.294,166.748c-3.848,3.327-8.957,7.51-14.045,7.197
										c-2.485-0.161-6.828-0.084-11.268-5.297c-2.603-3.055-5.094-6.124-7.321-9.013c-0.007-0.069-0.014-0.132-0.014-0.195
										c-0.16-4.301,6.529-10.028,9.668-11.755c4.906-2.7,11.003-3.201,16.703-3.48c5.13-0.251,11.574,1.58,13.592-4.503
										c3.376-10.189-1.419-23.232-1.412-33.776l1.579,3.334c-0.362,3.779,0.084,7.342,3.8,12.465
										C879.53,140.969,861.122,160.84,854.294,166.748z"/>
									<g>
										<path style="opacity:0.5;fill:#009BAB;" d="M837.473,132.924c-2.651-0.821-5.832-1.83-8.658-1.726
											c-2.471,0.077-4.67,1.009-6.014,3.654c-1.162,2.283-0.243,5.596-2.032,7.642c-2.561,2.93-5.178,4.524-7.558,5.282
											c-3.661,1.162-6.759,0.362-8.22-0.55c-4.628-2.909-7.843-17.295-5.025-21.283c1.67-2.359,6.111-4.906,11.407-7.273
											c6.856-3.069,15.152-5.839,20.74-7.537c2.137-0.655,3.877-1.142,4.99-1.434c4.907-1.287,13.224-4.531,18.095-1.837
											c4.267,2.345,7.802,9.903,8.589,14.225C865.827,133.272,844.447,135.074,837.473,132.924z"/>
										<path style="fill:#46494B;" d="M809.566,149.051c-2.677,0-4.348-0.866-4.942-1.239c-2.946-1.848-4.979-7.423-5.824-11.635
											c-0.958-4.774-0.735-8.749,0.595-10.633c5.449-7.72,37.216-16.438,37.533-16.522c0.79-0.207,1.67-0.465,2.609-0.741
											c3.271-0.961,7.342-2.156,10.945-2.156c2.003,0,3.705,0.378,5.056,1.123c4.479,2.471,8.127,10.268,8.936,14.713
											c0.446,2.446-0.114,4.628-1.662,6.484c-3.672,4.402-12.284,5.963-18.543,5.963l0,0c-2.796,0-5.283-0.293-7.003-0.824
											l-0.213-0.066c-2.487-0.769-5.306-1.642-7.851-1.642c-2.805,0-4.642,1.046-5.782,3.291
											c-0.443,0.875-0.547,1.966-0.655,3.122c-0.154,1.64-0.313,3.335-1.471,4.662
											C816.894,147.994,812.488,149.051,809.566,149.051z M850.482,107.517c-3.402,0-7.367,1.164-10.552,2.1
											c-0.954,0.28-1.847,0.542-2.649,0.752c-8.344,2.186-32.555,10.036-36.749,15.978c-1.081,1.531-1.225,5.282-0.368,9.557
											c1.026,5.11,3.115,9.423,5.199,10.73c0.384,0.241,1.821,1.026,4.202,1.026c2.633,0,6.623-0.975,10.68-5.622
											c0.862-0.989,0.995-2.392,1.134-3.877c0.116-1.235,0.237-2.511,0.8-3.621c1.365-2.69,3.728-4.054,7.023-4.054
											c2.755,0,5.681,0.905,8.262,1.705l0.213,0.066c1.567,0.484,3.97,0.762,6.592,0.762c5.958,0,14.11-1.431,17.474-5.463
											c1.272-1.524,1.73-3.322,1.361-5.344c-0.777-4.27-4.288-11.563-8.239-13.743
											C853.723,107.837,852.247,107.517,850.482,107.517z"/>
										<path style="opacity:0.5;fill:#009BAB;" d="M832.114,111.133c-1.858,6.445-3.096,13.056-3.298,20.064
											c-2.471,0.077-4.67,1.009-6.014,3.654c-1.162,2.283-0.243,5.596-2.032,7.642c-2.561,2.93-5.178,4.524-7.558,5.282
											c-2.422-8.247-3.362-16.829-2.339-25.57c0.139-1.183,0.306-2.359,0.501-3.536
											C818.229,115.601,826.525,112.831,832.114,111.133z"/>
									</g>
									<path style="fill:#DE7F50;" d="M830.618,153.949c4.872,3.48,14.616,1.392,14.964-6.612
										C840.013,150.469,835.49,152.209,830.618,153.949z"/>
								</g>
							</g>
							<g>
								<path style="fill:#F5132D;" d="M884.952,165.143c-6.595,15.829-22.258,31.146-36.935,38.801
									c8.357,0.652,27.299,3.689,32.678,9.905c5.38-8.956,8.605-14.987,11.859-22.426c4.858-11.111,7.39-17.194,8.423-24.378
									L884.952,165.143z"/>
								<path style="fill:#F5132D;" d="M836.884,216.23c1.159-7.956-5.723-17.36-5.908-24.829c3.113-3.184,6.352-6.204,9.757-8.923
									c0.67,4.218,1.944,9.392,2.94,11.471c2.781,5.768,6.252,6.707,11.382,7.73C847.193,203.592,841.647,209.947,836.884,216.23z
									"/>
								<path style="fill:#F5132D;" d="M871.883,292.517c-9.015-20.177-21.025-80.952-20.635-90.73l2.476,0.048
									c-0.387,9.651,11.511,69.733,20.437,89.712L871.883,292.517z"/>
								<path style="fill:#F5132D;" d="M864.444,215.773c0.299,1.433-0.393,2.788-1.546,3.03c-1.15,0.24-2.328-0.725-2.627-2.159
									c-0.299-1.431,0.393-2.789,1.544-3.029C862.969,213.374,864.145,214.34,864.444,215.773z"/>
								<path style="fill:#D0DAEA;" d="M873.661,255.348c0.299,1.433-0.393,2.789-1.545,3.03c-1.151,0.24-2.33-0.725-2.629-2.157
									c-0.299-1.433,0.394-2.791,1.545-3.031C872.185,252.949,873.361,253.916,873.661,255.348z"/>
							</g>
						</g>
						<g>
							<path style="fill:#F5132D;" d="M872.571,270.211c8.125,24.238,13.715,49.122,32.973,67.89
								c11.128,10.852,27.858,19.468,43.882,19.549c3.587,0.018,6.885-0.593,9.91-1.721c-7.496-39.708-10.816-88.587-12.218-116.801
								c-0.104,6.349-33.496-36.776-32.287-30.545c18.095,93.261-9.778,83.952-32.835,69.373
								C878.514,275.755,875.334,273.124,872.571,270.211z"/>
						</g>
						<path style="fill:#332E2C;" d="M967.029,384.665l-8.846,1.719l-49.734,9.681l-45.816,17.831
							c1.392-25.751-22.508-106.032-27.227-133.314c-2.93-16.898-4.76-30.275-4.552-36.156
							c21.325-5.491,46.944-10.781,69.291-14.066c-0.285,10.294,0.077,20.573,1.323,30.838c1.809,14.866,5.978,29.816,15.103,41.926
							c7.224,9.584,18.763,16.196,30.282,19.195c2.492,0.64,4.99,1.141,7.468,1.469c0.668,0.09,1.336,0.16,2.004,0.222
							c2.102,12.18,7.467,26.113,9.82,48.767C966.528,376.495,966.834,380.448,967.029,384.665z"/>
						<path style="fill:#2C211C;" d="M899.808,247.558c-5.276-35.316,1.65-66.795,6.637-81.341l-9.494,1.204
							c-2.352,7.716-4.733,18.04-6.214,29.923c-2.108,16.917-1.971,33.976,0.329,50.214H899.808z"/>
						<path style="fill:#2C211C;" d="M839.773,273.152l7.967-3.408c-13.056-30.518-14.697-61.301-13.346-81.715
							c-1.157,1.099-2.294,2.226-3.419,3.373c-1.637,1.677-3.615,2.876-5.599,4.021c-0.08,3.455-0.076,7.086,0.04,10.854
							C826.148,229.782,831.108,252.906,839.773,273.152z"/>
						<path style="fill:#1E1B1A;" d="M975.269,702.908h-22.438c-1.308-20.476-2.812-40.652-4.921-60.772
							c-0.716-6.828-1.503-13.648-2.387-20.469c8.728,2.651,17.594,2.15,22.654-5.686c12.701-19.654-2.512-54.544-3.515-75.736
							c-1.253-26.656-1.322-53.764-4.015-80.434c-1.267-12.479-1.808-25.169-2.199-37.951
							c-3.25-106.095-77.024-71.296-58.302-191.498c-0.285,10.294,0.077,20.573,1.323,30.838
							c1.809,14.866,5.978,29.816,15.103,41.926c7.224,9.584,18.763,16.196,30.282,19.195c2.492,0.64,4.99,1.141,7.468,1.469
							c0.668,0.09,1.336,0.16,2.004,0.222c2.102,12.18,12.812,56.806,12.896,61.852c0.202,11.157,0.592,23.601,1.058,36.573
							c1.35,37.5,3.369,79.481,3.341,107.891c-0.049,44.466,7.308,45.879,11.762,90.491
							C986.663,633.7,979.821,680.539,975.269,702.908z"/>
						<g>
							<path style="fill:#1E1B1A;" d="M843.786,250.905l43.15-7.964c-0.112,11.298,6.235,30.511,6.844,41.721
								c-11.99,2.295-29.632,7.58-41.721,6.843C847.546,277.499,842.65,261.573,843.786,250.905z"/>
							<path style="fill:#2C211C;" d="M841.12,253.935l43.823-8.566c-1.394,5.221,2.741,13.361,2.075,18.462
								c-12.187,2.418-30.334,6.856-42.274,7.888C841.844,265.772,838.781,258.985,841.12,253.935z"/>
						</g>
					</g>
				</g>
				<g>
					<g>
						<path style="fill:#FDA271;" d="M969.982,384.3l-17.022-4.506c2.415,4.784-1.255,12.173-3.003,17.023
							c-2.069,5.736-7.956,25.504-6.891,26.43c9.395,2.088,8.661-14.667,10.795-17.879c0.374,5.445,1.665,11.966,0.601,17.482
							c-0.926,4.802-8.01,12.517-5.432,13.943c3.101,0.254,5.968-3.845,8.414-7.138c-0.617,1.005-1.101,2.063-1.417,3.12
							c4.646-0.521,7.57-3.267,10.829-5.822c3.849-3.017,5.647-3.918,5.63-10.611C972.458,405.742,971.344,394.336,969.982,384.3z"
							/>
						<path style="fill:#FF3647;" d="M970.474,392.008c-2.304,1.664-5.596,1.997-9.479,1.789c-2.895-0.139-6.118-0.592-9.507-1.009
							c1.983-36.768,0.905-78.109-10.927-114.112c-8.999-27.401-32.69-58.574-25.73-94.346c1.816-9.333,15.987-17.274,23.844-11.923
							c13.376,9.104,24.108,52.296,30.539,79.863c2.346,10.029,4.113,17.991,5.234,21.492
							C982.619,299.269,977.009,361.698,970.474,392.008z"/>
					</g>
					<path style="fill:#F5132D;" d="M970.474,392.008c-2.304,1.664-5.596,1.997-9.479,1.789c4.336-18.179,6.305-37.353,8.142-55.957
						c2.025-20.594,4.302-41.612,2.22-62.443c-0.717-7.203-1.225-15.221-2.144-23.128c2.346,10.029,4.113,17.991,5.234,21.492
						C982.619,299.269,977.009,361.698,970.474,392.008z"/>
				</g>
			</g>
		</g>
	</g>
</g>
</svg>
