<?xml version="1.0" encoding="utf-8"?>
<!-- Generator: Adobe Illustrator 24.0.0, SVG Export Plug-In . SVG Version: 6.00 Build 0)  -->
<svg version="1.1" id="Layer_1" xmlns="http://www.w3.org/2000/svg" xmlns:xlink="http://www.w3.org/1999/xlink" x="0px" y="0px"
	 viewBox="0 0 595.28 841.89" style="enable-background:new 0 0 595.28 841.89;" xml:space="preserve">
<style type="text/css">
	.st0{fill:#F3903E;}
	.st1{fill:#1D71B8;}
	.st2{font-family:'AlibabaSans-Bold';}
	.st3{font-size:39px;}
	.st4{fill:#646363;}
	.st5{font-family:'RageItalic';}
	.st6{font-size:14.7026px;}
</style>
<g>
	<path class="st0" d="M62.3,454.37c15.34,7.48,36.66,3.33,47.51-14.36c10.33-16.85,5.45-39.11-10.93-50.08
		c-6.96,6.95-13.93,13.91-20.98,20.94c-3.11-3.28-6.13-6.47-9.16-9.66c-0.84-0.88-1.69-1.75-2.51-2.64
		c-0.5-0.55-1.01-1.12-1.83-0.77c-0.81,0.35-0.74,1.14-0.74,1.87c0.01,5.85,0,11.71,0,17.56c0,4.27,0,8.53,0,13.19
		c1.81-1.79,3.4-3.34,4.96-4.91c0.36-0.36,0.17-0.86,0.17-1.3c0.01-4.55,0-9.09,0-13.64c0-0.48,0-0.95,0-1.8
		c3.14,3.3,6.03,6.34,8.86,9.31c7.21-7.13,14.37-14.2,21.59-21.34c3.57,3.1,6.28,6.82,8.13,11.13c8.46,19.65-3.99,41.72-25.18,44.64
		c-5.27,0.73-10.42,0.12-15.39-1.77c-0.75-0.29-1.2-0.22-1.71,0.41C64.24,452.25,63.28,453.27,62.3,454.37z"/>
	<path class="st1" d="M56.45,444.42c-3.42-3.02-5.99-6.62-7.8-10.74c-8.62-19.56,3.92-41.92,25.1-44.79
		c4.85-0.66,9.62-0.2,14.25,1.35c0.88,0.3,1.37,0.16,1.98-0.49c0.94-1.01,1.99-1.92,3.06-2.93c-13.92-6.78-35.58-3.76-46.8,14.51
		c-10.78,17.56-4.9,39.47,10.6,49.9c7-6.84,14.01-13.68,20.73-20.24c3.29,3.12,6.52,6.18,9.75,9.25c0.39,0.37,0.74,0.79,1.14,1.15
		c0.7,0.62,1.5,0.77,2.38,0.42c0.89-0.35,1.33-1.03,1.46-1.94c0.03-0.22,0.02-0.45,0.02-0.67c0-9.27,0-18.55,0-27.82
		c0-0.17-0.02-0.34-0.06-0.82c-1.74,1.56-3.33,2.97-4.9,4.4c-0.34,0.31-0.17,0.77-0.17,1.16c-0.01,5-0.01,9.99-0.01,14.99
		c0,0.44,0,0.87,0,1.29c-3.1-2.97-6.16-5.91-9.29-8.91C70.79,430.42,63.65,437.39,56.45,444.42z"/>
</g>
<text transform="matrix(0.9697 0 0 1 125.5093 435.1101)" class="st1 st2 st3">WINNER MACHINERIES</text>
<text transform="matrix(0.9444 0 0 1 287.9779 448.0707)" class="st4 st5 st6">we believe in commitment, innovation &amp; quality</text>
</svg>
